<svg width="1440" height="720" viewBox="0 0 1440 720" fill="none" xmlns="http://www.w3.org/2000/svg">
<g clip-path="url(#clip0_231_351)">
<rect width="1440" height="720" fill="#CCCACD"/>
<path d="M1416.52 719.5H1376.11L1376.02 719.126L1375.98 719H1416.5L1416.52 719.5ZM1440 719H1416.5L1416.5 718.981L1398.5 243.481L1398.5 243.381L1398.45 243.291L1354.22 147.373L1391.09 140.491L1391.5 140.415V95H1416.5V30.0156L1416.02 30L1053.52 18.5H989V57.375L909.329 39.5605L897.938 18.7598L897.788 18.4863L897.477 18.501L451.477 39.501L451.283 39.5098L433.293 57.5H387.82L371.454 21.792L371.321 21.5H123V57.0273L69.291 18.5938L69.1602 18.5H50.9717L50.9424 18.5029L24.9424 21.5029L24.1689 21.5928L24.5723 22.2588L50.291 64.7949L24.7764 77.5527L24.5 77.6914V216H60.5V304H24.5V613H68.5V710H166.5V687H567.739L583.59 709.785L583.738 710H1112.56L1112.63 709.983L1243.56 675.5H1364.61L1375.98 719H0V-1H1440V719Z" fill="black"/>
<path d="M143.091 239L119.636 207.705H112.205V239H101.67V169.182H112.205V198.67H115.648L142.034 169.182H154.886L126.966 200.443L155.943 239H143.091ZM180.122 240.159C176.804 240.159 173.804 239.545 171.122 238.318C168.44 237.068 166.315 235.261 164.747 232.898C163.202 230.534 162.429 227.636 162.429 224.205C162.429 221.25 162.997 218.818 164.134 216.909C165.27 215 166.804 213.489 168.736 212.375C170.668 211.261 172.827 210.42 175.213 209.852C177.599 209.284 180.031 208.852 182.509 208.557C185.645 208.193 188.19 207.898 190.145 207.67C192.099 207.42 193.52 207.023 194.406 206.477C195.293 205.932 195.736 205.045 195.736 203.818V203.58C195.736 200.602 194.895 198.295 193.213 196.659C191.554 195.023 189.077 194.205 185.781 194.205C182.349 194.205 179.645 194.966 177.668 196.489C175.713 197.989 174.361 199.659 173.611 201.5L164.031 199.318C165.168 196.136 166.827 193.568 169.009 191.614C171.213 189.636 173.747 188.205 176.611 187.318C179.474 186.409 182.486 185.955 185.645 185.955C187.736 185.955 189.952 186.205 192.293 186.705C194.656 187.182 196.861 188.068 198.906 189.364C200.974 190.659 202.668 192.511 203.986 194.92C205.304 197.307 205.963 200.409 205.963 204.227V239H196.009V231.841H195.599C194.94 233.159 193.952 234.455 192.634 235.727C191.315 237 189.622 238.057 187.554 238.898C185.486 239.739 183.009 240.159 180.122 240.159ZM182.338 231.977C185.156 231.977 187.565 231.42 189.565 230.307C191.588 229.193 193.122 227.739 194.168 225.943C195.236 224.125 195.77 222.182 195.77 220.114V213.364C195.406 213.727 194.702 214.068 193.656 214.386C192.634 214.682 191.463 214.943 190.145 215.17C188.827 215.375 187.543 215.568 186.293 215.75C185.043 215.909 183.997 216.045 183.156 216.159C181.179 216.409 179.372 216.83 177.736 217.42C176.122 218.011 174.827 218.864 173.849 219.977C172.895 221.068 172.418 222.523 172.418 224.341C172.418 226.864 173.349 228.773 175.213 230.068C177.077 231.341 179.452 231.977 182.338 231.977ZM219.54 239V186.636H229.733V208.591H234.642L251.926 186.636H264.54L244.256 212.102L264.778 239H252.131L236.347 218.068H229.733V239H219.54ZM95.7386 335.102V311.17H100C101.091 310.17 102.011 308.977 102.761 307.591C103.534 306.205 104.182 304.557 104.705 302.648C105.25 300.739 105.705 298.511 106.068 295.966C106.432 293.398 106.75 290.466 107.023 287.17L108.659 267.636H144.25V311.17H152.295V335.102H142.341V320H105.83V335.102H95.7386ZM110.909 311.17H134.295V276.364H117.795L116.705 287.17C116.182 292.67 115.523 297.443 114.727 301.489C113.932 305.511 112.659 308.739 110.909 311.17ZM172.247 305.716L195.327 267.636H206.304V320H196.315V281.886L173.338 320H162.259V267.636H172.247V305.716ZM220.009 320V267.636H262.724V320H252.736V276.432H229.929V320H220.009ZM298.886 337.83V250.182H309.08V337.83H298.886ZM298.886 321.057C295.182 321.057 291.807 320.42 288.761 319.148C285.716 317.852 283.091 316.011 280.886 313.625C278.682 311.239 276.977 308.386 275.773 305.068C274.591 301.75 274 298.08 274 294.057C274 289.989 274.591 286.295 275.773 282.977C276.977 279.659 278.682 276.807 280.886 274.42C283.091 272.034 285.716 270.193 288.761 268.898C291.807 267.602 295.182 266.955 298.886 266.955H301.409V321.057H298.886ZM298.886 312.466H300.318V275.545H298.886C296.432 275.545 294.295 276.045 292.477 277.045C290.659 278.023 289.148 279.375 287.943 281.102C286.739 282.807 285.83 284.773 285.216 287C284.625 289.227 284.33 291.58 284.33 294.057C284.33 297.375 284.864 300.432 285.932 303.227C287 306 288.614 308.239 290.773 309.943C292.932 311.625 295.636 312.466 298.886 312.466ZM309.08 321.057H306.523V266.955H309.08C312.784 266.955 316.159 267.602 319.205 268.898C322.25 270.193 324.864 272.034 327.045 274.42C329.25 276.807 330.943 279.659 332.125 282.977C333.33 286.295 333.932 289.989 333.932 294.057C333.932 298.08 333.33 301.75 332.125 305.068C330.943 308.386 329.25 311.239 327.045 313.625C324.864 316.011 322.25 317.852 319.205 319.148C316.159 320.42 312.784 321.057 309.08 321.057ZM309.08 312.466C311.534 312.466 313.67 311.989 315.489 311.034C317.307 310.057 318.818 308.716 320.023 307.011C321.227 305.284 322.125 303.318 322.716 301.114C323.307 298.886 323.602 296.534 323.602 294.057C323.602 290.761 323.068 287.716 322 284.92C320.955 282.102 319.352 279.841 317.193 278.136C315.034 276.409 312.33 275.545 309.08 275.545H307.614V312.466H309.08ZM367.827 321.057C362.668 321.057 358.224 319.955 354.497 317.75C350.793 315.523 347.929 312.398 345.906 308.375C343.906 304.33 342.906 299.591 342.906 294.159C342.906 288.795 343.906 284.068 345.906 279.977C347.929 275.886 350.747 272.693 354.361 270.398C357.997 268.102 362.247 266.955 367.111 266.955C370.065 266.955 372.929 267.443 375.702 268.42C378.474 269.398 380.963 270.932 383.168 273.023C385.372 275.114 387.111 277.83 388.384 281.17C389.656 284.489 390.293 288.523 390.293 293.273V296.886H348.668V289.25H380.304C380.304 286.568 379.759 284.193 378.668 282.125C377.577 280.034 376.043 278.386 374.065 277.182C372.111 275.977 369.815 275.375 367.179 275.375C364.315 275.375 361.815 276.08 359.679 277.489C357.565 278.875 355.929 280.693 354.77 282.943C353.634 285.17 353.065 287.591 353.065 290.205V296.17C353.065 299.67 353.679 302.648 354.906 305.102C356.156 307.557 357.895 309.432 360.122 310.727C362.349 312 364.952 312.636 367.929 312.636C369.861 312.636 371.622 312.364 373.213 311.818C374.804 311.25 376.179 310.409 377.338 309.295C378.497 308.182 379.384 306.807 379.997 305.17L389.645 306.909C388.872 309.75 387.486 312.239 385.486 314.375C383.509 316.489 381.02 318.136 378.02 319.318C375.043 320.477 371.645 321.057 367.827 321.057ZM411.591 305.716L434.67 267.636H445.648V320H435.659V281.886L412.682 320H401.602V267.636H411.591V305.716ZM430.307 249.909H438.693C438.693 253.75 437.33 256.875 434.602 259.284C431.898 261.67 428.239 262.864 423.625 262.864C419.034 262.864 415.386 261.67 412.682 259.284C409.977 256.875 408.625 253.75 408.625 249.909H416.977C416.977 251.614 417.477 253.125 418.477 254.443C419.477 255.739 421.193 256.386 423.625 256.386C426.011 256.386 427.716 255.739 428.739 254.443C429.784 253.148 430.307 251.636 430.307 249.909ZM459.352 320V267.636H469.545V289.591H474.455L491.739 267.636H504.352L484.068 293.102L504.591 320H491.943L476.159 299.068H469.545V320H459.352ZM522.497 305.716L545.577 267.636H556.554V320H546.565V281.886L523.588 320H512.509V267.636H522.497V305.716ZM130.239 388.386L147.148 348.636H155.943L134.023 401H126.455L104.977 348.636H113.67L130.239 388.386ZM110.841 348.636V401H100.852V348.636H110.841ZM149.909 401V348.636H159.83V401H149.909ZM195.472 402.057C190.563 402.057 186.278 400.932 182.619 398.682C178.96 396.432 176.119 393.284 174.097 389.239C172.074 385.193 171.062 380.466 171.062 375.057C171.062 369.625 172.074 364.875 174.097 360.807C176.119 356.739 178.96 353.58 182.619 351.33C186.278 349.08 190.563 347.955 195.472 347.955C200.381 347.955 204.665 349.08 208.324 351.33C211.983 353.58 214.824 356.739 216.847 360.807C218.869 364.875 219.881 369.625 219.881 375.057C219.881 380.466 218.869 385.193 216.847 389.239C214.824 393.284 211.983 396.432 208.324 398.682C204.665 400.932 200.381 402.057 195.472 402.057ZM195.506 393.5C198.688 393.5 201.324 392.659 203.415 390.977C205.506 389.295 207.051 387.057 208.051 384.261C209.074 381.466 209.585 378.386 209.585 375.023C209.585 371.682 209.074 368.614 208.051 365.818C207.051 363 205.506 360.739 203.415 359.034C201.324 357.33 198.688 356.477 195.506 356.477C192.301 356.477 189.642 357.33 187.528 359.034C185.438 360.739 183.881 363 182.858 365.818C181.858 368.614 181.358 371.682 181.358 375.023C181.358 378.386 181.858 381.466 182.858 384.261C183.881 387.057 185.438 389.295 187.528 390.977C189.642 392.659 192.301 393.5 195.506 393.5ZM264.736 348.636V357.432H241.315V401H231.259V348.636H264.736ZM281.952 420.636C280.429 420.636 279.043 420.511 277.793 420.261C276.543 420.034 275.611 419.784 274.997 419.511L277.452 411.159C279.315 411.659 280.974 411.875 282.429 411.807C283.884 411.739 285.168 411.193 286.281 410.17C287.418 409.148 288.418 407.477 289.281 405.159L290.543 401.682L271.384 348.636H282.293L295.554 389.273H296.099L309.361 348.636H320.304L298.724 407.989C297.724 410.716 296.452 413.023 294.906 414.909C293.361 416.818 291.52 418.25 289.384 419.205C287.247 420.159 284.77 420.636 281.952 420.636ZM326.952 357.432V348.636H371.134V357.432H354.054V401H344.099V357.432H326.952ZM110.841 467.716L133.92 429.636H144.898V482H134.909V443.886L111.932 482H100.852V429.636H110.841V467.716ZM155.5 468.159H165.932C166.068 470.295 167.034 471.943 168.83 473.102C170.648 474.261 173 474.841 175.886 474.841C178.818 474.841 181.318 474.216 183.386 472.966C185.455 471.693 186.489 469.727 186.489 467.068C186.489 465.477 186.091 464.091 185.295 462.909C184.523 461.705 183.42 460.773 181.989 460.114C180.58 459.455 178.909 459.125 176.977 459.125H168.455V451.114H176.977C179.864 451.114 182.023 450.455 183.455 449.136C184.886 447.818 185.602 446.17 185.602 444.193C185.602 442.057 184.83 440.341 183.284 439.045C181.761 437.727 179.636 437.068 176.909 437.068C174.136 437.068 171.83 437.693 169.989 438.943C168.148 440.17 167.182 441.761 167.091 443.716H156.795C156.864 440.784 157.75 438.216 159.455 436.011C161.182 433.784 163.5 432.057 166.409 430.83C169.341 429.58 172.67 428.955 176.398 428.955C180.284 428.955 183.648 429.58 186.489 430.83C189.33 432.08 191.523 433.807 193.068 436.011C194.636 438.216 195.42 440.75 195.42 443.614C195.42 446.5 194.557 448.864 192.83 450.705C191.125 452.523 188.898 453.83 186.148 454.625V455.17C188.17 455.307 189.966 455.92 191.534 457.011C193.102 458.102 194.33 459.545 195.216 461.341C196.102 463.136 196.545 465.17 196.545 467.443C196.545 470.648 195.659 473.42 193.886 475.761C192.136 478.102 189.705 479.909 186.591 481.182C183.5 482.432 179.966 483.057 175.989 483.057C172.125 483.057 168.659 482.455 165.591 481.25C162.545 480.023 160.125 478.295 158.33 476.068C156.557 473.841 155.614 471.205 155.5 468.159ZM236.457 469.386L253.366 429.636H262.162L240.241 482H232.673L211.196 429.636H219.889L236.457 469.386ZM217.06 429.636V482H207.071V429.636H217.06ZM256.128 482V429.636H266.048V482H256.128ZM302.202 483.057C297.043 483.057 292.599 481.955 288.872 479.75C285.168 477.523 282.304 474.398 280.281 470.375C278.281 466.33 277.281 461.591 277.281 456.159C277.281 450.795 278.281 446.068 280.281 441.977C282.304 437.886 285.122 434.693 288.736 432.398C292.372 430.102 296.622 428.955 301.486 428.955C304.44 428.955 307.304 429.443 310.077 430.42C312.849 431.398 315.338 432.932 317.543 435.023C319.747 437.114 321.486 439.83 322.759 443.17C324.031 446.489 324.668 450.523 324.668 455.273V458.886H283.043V451.25H314.679C314.679 448.568 314.134 446.193 313.043 444.125C311.952 442.034 310.418 440.386 308.44 439.182C306.486 437.977 304.19 437.375 301.554 437.375C298.69 437.375 296.19 438.08 294.054 439.489C291.94 440.875 290.304 442.693 289.145 444.943C288.009 447.17 287.44 449.591 287.44 452.205V458.17C287.44 461.67 288.054 464.648 289.281 467.102C290.531 469.557 292.27 471.432 294.497 472.727C296.724 474 299.327 474.636 302.304 474.636C304.236 474.636 305.997 474.364 307.588 473.818C309.179 473.25 310.554 472.409 311.713 471.295C312.872 470.182 313.759 468.807 314.372 467.17L324.02 468.909C323.247 471.75 321.861 474.239 319.861 476.375C317.884 478.489 315.395 480.136 312.395 481.318C309.418 482.477 306.02 483.057 302.202 483.057ZM371.466 451.42V460.25H343.102V451.42H371.466ZM345.966 429.636V482H335.977V429.636H345.966ZM378.591 429.636V482H368.636V429.636H378.591ZM402.216 467.716L425.295 429.636H436.273V482H426.284V443.886L403.307 482H392.227V429.636H402.216V467.716ZM443.483 438.432V429.636H487.665V438.432H470.585V482H460.631V438.432H443.483ZM506.116 447.636H521.321C527.73 447.636 532.662 449.227 536.116 452.409C539.571 455.591 541.298 459.693 541.298 464.716C541.298 467.989 540.526 470.932 538.98 473.545C537.435 476.159 535.173 478.227 532.196 479.75C529.219 481.25 525.594 482 521.321 482H498.446V429.636H508.435V473.205H521.321C524.253 473.205 526.662 472.443 528.548 470.92C530.435 469.375 531.378 467.409 531.378 465.023C531.378 462.5 530.435 460.443 528.548 458.852C526.662 457.239 524.253 456.432 521.321 456.432H506.116V447.636ZM122.909 564.057C118 564.057 113.716 562.932 110.057 560.682C106.398 558.432 103.557 555.284 101.534 551.239C99.5114 547.193 98.5 542.466 98.5 537.057C98.5 531.625 99.5114 526.875 101.534 522.807C103.557 518.739 106.398 515.58 110.057 513.33C113.716 511.08 118 509.955 122.909 509.955C127.818 509.955 132.102 511.08 135.761 513.33C139.42 515.58 142.261 518.739 144.284 522.807C146.307 526.875 147.318 531.625 147.318 537.057C147.318 542.466 146.307 547.193 144.284 551.239C142.261 555.284 139.42 558.432 135.761 560.682C132.102 562.932 127.818 564.057 122.909 564.057ZM122.943 555.5C126.125 555.5 128.761 554.659 130.852 552.977C132.943 551.295 134.489 549.057 135.489 546.261C136.511 543.466 137.023 540.386 137.023 537.023C137.023 533.682 136.511 530.614 135.489 527.818C134.489 525 132.943 522.739 130.852 521.034C128.761 519.33 126.125 518.477 122.943 518.477C119.739 518.477 117.08 519.33 114.966 521.034C112.875 522.739 111.318 525 110.295 527.818C109.295 530.614 108.795 533.682 108.795 537.023C108.795 540.386 109.295 543.466 110.295 546.261C111.318 549.057 112.875 551.295 114.966 552.977C117.08 554.659 119.739 555.5 122.943 555.5ZM199.094 491.136L203.321 497.58C201.753 499.011 199.969 500.034 197.969 500.648C195.991 501.239 193.707 501.614 191.116 501.773C188.526 501.909 185.56 502.034 182.219 502.148C178.446 502.261 175.344 503.08 172.912 504.602C170.48 506.102 168.605 508.33 167.287 511.284C165.991 514.216 165.151 517.898 164.764 522.33H165.412C167.116 519.08 169.48 516.648 172.503 515.034C175.548 513.42 178.969 512.614 182.764 512.614C186.991 512.614 190.753 513.58 194.048 515.511C197.344 517.443 199.935 520.273 201.821 524C203.73 527.705 204.685 532.239 204.685 537.602C204.685 543.034 203.685 547.727 201.685 551.682C199.707 555.636 196.912 558.693 193.298 560.852C189.707 562.989 185.469 564.057 180.582 564.057C175.696 564.057 171.435 562.955 167.798 560.75C164.185 558.523 161.378 555.227 159.378 550.864C157.401 546.5 156.412 541.114 156.412 534.705V529.523C156.412 517.545 158.548 508.534 162.821 502.489C167.094 496.443 173.48 493.341 181.98 493.182C184.73 493.114 187.185 493.102 189.344 493.148C191.503 493.17 193.389 493.068 195.003 492.841C196.639 492.591 198.003 492.023 199.094 491.136ZM180.616 555.5C183.457 555.5 185.901 554.784 187.946 553.352C190.014 551.898 191.605 549.841 192.719 547.182C193.832 544.523 194.389 541.386 194.389 537.773C194.389 534.227 193.832 531.216 192.719 528.739C191.605 526.261 190.014 524.375 187.946 523.08C185.878 521.761 183.401 521.102 180.514 521.102C178.378 521.102 176.469 521.477 174.787 522.227C173.105 522.955 171.662 524.034 170.457 525.466C169.276 526.898 168.355 528.648 167.696 530.716C167.06 532.761 166.719 535.114 166.673 537.773C166.673 543.182 167.912 547.489 170.389 550.693C172.889 553.898 176.298 555.5 180.616 555.5ZM291.105 554.205L290.151 578H280.162V563H273.651V554.205H291.105ZM216.071 510.636H226.06V554.17H244.162V510.636H254.151V554.17H272.253V510.636H282.241V563H216.071V510.636ZM323.858 564.057C318.699 564.057 314.256 562.955 310.528 560.75C306.824 558.523 303.96 555.398 301.938 551.375C299.938 547.33 298.938 542.591 298.938 537.159C298.938 531.795 299.938 527.068 301.938 522.977C303.96 518.886 306.778 515.693 310.392 513.398C314.028 511.102 318.278 509.955 323.142 509.955C326.097 509.955 328.96 510.443 331.733 511.42C334.506 512.398 336.994 513.932 339.199 516.023C341.403 518.114 343.142 520.83 344.415 524.17C345.688 527.489 346.324 531.523 346.324 536.273V539.886H304.699V532.25H336.335C336.335 529.568 335.79 527.193 334.699 525.125C333.608 523.034 332.074 521.386 330.097 520.182C328.142 518.977 325.847 518.375 323.21 518.375C320.347 518.375 317.847 519.08 315.71 520.489C313.597 521.875 311.96 523.693 310.801 525.943C309.665 528.17 309.097 530.591 309.097 533.205V539.17C309.097 542.67 309.71 545.648 310.938 548.102C312.188 550.557 313.926 552.432 316.153 553.727C318.381 555 320.983 555.636 323.96 555.636C325.892 555.636 327.653 555.364 329.244 554.818C330.835 554.25 332.21 553.409 333.369 552.295C334.528 551.182 335.415 549.807 336.028 548.17L345.676 549.909C344.903 552.75 343.517 555.239 341.517 557.375C339.54 559.489 337.051 561.136 334.051 562.318C331.074 563.477 327.676 564.057 323.858 564.057ZM379.69 564.057C374.622 564.057 370.259 562.909 366.599 560.614C362.963 558.295 360.168 555.102 358.213 551.034C356.259 546.966 355.281 542.307 355.281 537.057C355.281 531.739 356.281 527.045 358.281 522.977C360.281 518.886 363.099 515.693 366.736 513.398C370.372 511.102 374.656 509.955 379.588 509.955C383.565 509.955 387.111 510.693 390.224 512.17C393.338 513.625 395.849 515.67 397.759 518.307C399.69 520.943 400.838 524.023 401.202 527.545H391.281C390.736 525.091 389.486 522.977 387.531 521.205C385.599 519.432 383.009 518.545 379.759 518.545C376.918 518.545 374.429 519.295 372.293 520.795C370.179 522.273 368.531 524.386 367.349 527.136C366.168 529.864 365.577 533.091 365.577 536.818C365.577 540.636 366.156 543.932 367.315 546.705C368.474 549.477 370.111 551.625 372.224 553.148C374.361 554.67 376.872 555.432 379.759 555.432C381.69 555.432 383.44 555.08 385.009 554.375C386.599 553.648 387.929 552.614 388.997 551.273C390.088 549.932 390.849 548.318 391.281 546.432H401.202C400.838 549.818 399.736 552.841 397.895 555.5C396.054 558.159 393.588 560.25 390.497 561.773C387.429 563.295 383.827 564.057 379.69 564.057ZM408.139 519.432V510.636H452.321V519.432H435.241V563H425.287V519.432H408.139ZM463.102 563V510.636H484.818C490.727 510.636 495.409 511.898 498.864 514.42C502.318 516.92 504.045 520.318 504.045 524.614C504.045 527.682 503.068 530.114 501.114 531.909C499.159 533.705 496.568 534.909 493.341 535.523C495.682 535.795 497.83 536.5 499.784 537.636C501.739 538.75 503.307 540.25 504.489 542.136C505.693 544.023 506.295 546.273 506.295 548.886C506.295 551.659 505.58 554.114 504.148 556.25C502.716 558.364 500.636 560.023 497.909 561.227C495.205 562.409 491.943 563 488.125 563H463.102ZM472.682 554.477H488.125C490.648 554.477 492.625 553.875 494.057 552.67C495.489 551.466 496.205 549.83 496.205 547.761C496.205 545.33 495.489 543.42 494.057 542.034C492.625 540.625 490.648 539.92 488.125 539.92H472.682V554.477ZM472.682 532.455H484.92C486.83 532.455 488.466 532.182 489.83 531.636C491.216 531.091 492.273 530.318 493 529.318C493.75 528.295 494.125 527.091 494.125 525.705C494.125 523.682 493.295 522.102 491.636 520.966C489.977 519.83 487.705 519.261 484.818 519.261H472.682V532.455ZM539.534 564.057C534.625 564.057 530.341 562.932 526.682 560.682C523.023 558.432 520.182 555.284 518.159 551.239C516.136 547.193 515.125 542.466 515.125 537.057C515.125 531.625 516.136 526.875 518.159 522.807C520.182 518.739 523.023 515.58 526.682 513.33C530.341 511.08 534.625 509.955 539.534 509.955C544.443 509.955 548.727 511.08 552.386 513.33C556.045 515.58 558.886 518.739 560.909 522.807C562.932 526.875 563.943 531.625 563.943 537.057C563.943 542.466 562.932 547.193 560.909 551.239C558.886 555.284 556.045 558.432 552.386 560.682C548.727 562.932 544.443 564.057 539.534 564.057ZM539.568 555.5C542.75 555.5 545.386 554.659 547.477 552.977C549.568 551.295 551.114 549.057 552.114 546.261C553.136 543.466 553.648 540.386 553.648 537.023C553.648 533.682 553.136 530.614 552.114 527.818C551.114 525 549.568 522.739 547.477 521.034C545.386 519.33 542.75 518.477 539.568 518.477C536.364 518.477 533.705 519.33 531.591 521.034C529.5 522.739 527.943 525 526.92 527.818C525.92 530.614 525.42 533.682 525.42 537.023C525.42 540.386 525.92 543.466 526.92 546.261C527.943 549.057 529.5 551.295 531.591 552.977C533.705 554.659 536.364 555.5 539.568 555.5ZM582.037 563.648C580.173 563.648 578.571 562.989 577.23 561.67C575.889 560.33 575.219 558.716 575.219 556.83C575.219 554.966 575.889 553.375 577.23 552.057C578.571 550.716 580.173 550.045 582.037 550.045C583.901 550.045 585.503 550.716 586.844 552.057C588.185 553.375 588.855 554.966 588.855 556.83C588.855 558.08 588.537 559.227 587.901 560.273C587.287 561.295 586.469 562.114 585.446 562.727C584.423 563.341 583.287 563.648 582.037 563.648ZM582.037 525.534C580.173 525.534 578.571 524.864 577.23 523.523C575.889 522.182 575.219 520.58 575.219 518.716C575.219 516.852 575.889 515.261 577.23 513.943C578.571 512.602 580.173 511.932 582.037 511.932C583.901 511.932 585.503 512.602 586.844 513.943C588.185 515.261 588.855 516.852 588.855 518.716C588.855 519.966 588.537 521.114 587.901 522.159C587.287 523.182 586.469 524 585.446 524.614C584.423 525.227 583.287 525.534 582.037 525.534Z" fill="white"/>
<path d="M1275.1 204.091C1275.1 211.545 1273.74 217.955 1271.01 223.318C1268.28 228.659 1264.54 232.773 1259.79 235.659C1255.07 238.523 1249.69 239.955 1243.67 239.955C1237.62 239.955 1232.22 238.523 1227.47 235.659C1222.75 232.773 1219.02 228.648 1216.29 223.284C1213.57 217.92 1212.2 211.523 1212.2 204.091C1212.2 196.636 1213.57 190.239 1216.29 184.898C1219.02 179.534 1222.75 175.42 1227.47 172.557C1232.22 169.67 1237.62 168.227 1243.67 168.227C1249.69 168.227 1255.07 169.67 1259.79 172.557C1264.54 175.42 1268.28 179.534 1271.01 184.898C1273.74 190.239 1275.1 196.636 1275.1 204.091ZM1264.67 204.091C1264.67 198.409 1263.75 193.625 1261.91 189.739C1260.09 185.83 1257.59 182.875 1254.41 180.875C1251.25 178.852 1247.67 177.841 1243.67 177.841C1239.64 177.841 1236.05 178.852 1232.89 180.875C1229.74 182.875 1227.24 185.83 1225.39 189.739C1223.58 193.625 1222.67 198.409 1222.67 204.091C1222.67 209.773 1223.58 214.568 1225.39 218.477C1227.24 222.364 1229.74 225.318 1232.89 227.341C1236.05 229.341 1239.64 230.341 1243.67 230.341C1247.67 230.341 1251.25 229.341 1254.41 227.341C1257.59 225.318 1260.09 222.364 1261.91 218.477C1263.75 214.568 1264.67 209.773 1264.67 204.091ZM1284.48 195.432V186.636H1328.66V195.432H1311.59V239H1301.63V195.432H1284.48ZM644.571 320V267.636H687.287V320H677.298V276.432H654.491V320H644.571ZM723.483 321.057C718.324 321.057 713.881 319.955 710.153 317.75C706.449 315.523 703.585 312.398 701.562 308.375C699.562 304.33 698.562 299.591 698.562 294.159C698.562 288.795 699.562 284.068 701.562 279.977C703.585 275.886 706.403 272.693 710.017 270.398C713.653 268.102 717.903 266.955 722.767 266.955C725.722 266.955 728.585 267.443 731.358 268.42C734.131 269.398 736.619 270.932 738.824 273.023C741.028 275.114 742.767 277.83 744.04 281.17C745.313 284.489 745.949 288.523 745.949 293.273V296.886H704.324V289.25H735.96C735.96 286.568 735.415 284.193 734.324 282.125C733.233 280.034 731.699 278.386 729.722 277.182C727.767 275.977 725.472 275.375 722.835 275.375C719.972 275.375 717.472 276.08 715.335 277.489C713.222 278.875 711.585 280.693 710.426 282.943C709.29 285.17 708.722 287.591 708.722 290.205V296.17C708.722 299.67 709.335 302.648 710.562 305.102C711.812 307.557 713.551 309.432 715.778 310.727C718.006 312 720.608 312.636 723.585 312.636C725.517 312.636 727.278 312.364 728.869 311.818C730.46 311.25 731.835 310.409 732.994 309.295C734.153 308.182 735.04 306.807 735.653 305.17L745.301 306.909C744.528 309.75 743.142 312.239 741.142 314.375C739.165 316.489 736.676 318.136 733.676 319.318C730.699 320.477 727.301 321.057 723.483 321.057ZM757.259 339.636V267.636H767.213V276.125H768.065C768.656 275.034 769.509 273.773 770.622 272.341C771.736 270.909 773.281 269.659 775.259 268.591C777.236 267.5 779.849 266.955 783.099 266.955C787.327 266.955 791.099 268.023 794.418 270.159C797.736 272.295 800.338 275.375 802.224 279.398C804.134 283.42 805.088 288.261 805.088 293.92C805.088 299.58 804.145 304.432 802.259 308.477C800.372 312.5 797.781 315.602 794.486 317.784C791.19 319.943 787.429 321.023 783.202 321.023C780.02 321.023 777.418 320.489 775.395 319.42C773.395 318.352 771.827 317.102 770.69 315.67C769.554 314.239 768.679 312.966 768.065 311.852H767.452V339.636H757.259ZM767.247 293.818C767.247 297.5 767.781 300.727 768.849 303.5C769.918 306.273 771.463 308.443 773.486 310.011C775.509 311.557 777.986 312.33 780.918 312.33C783.963 312.33 786.509 311.523 788.554 309.909C790.599 308.273 792.145 306.057 793.19 303.261C794.259 300.466 794.793 297.318 794.793 293.818C794.793 290.364 794.27 287.261 793.224 284.511C792.202 281.761 790.656 279.591 788.588 278C786.543 276.409 783.986 275.614 780.918 275.614C777.963 275.614 775.463 276.375 773.418 277.898C771.395 279.42 769.861 281.545 768.815 284.273C767.77 287 767.247 290.182 767.247 293.818ZM838.565 321.057C833.497 321.057 829.134 319.909 825.474 317.614C821.838 315.295 819.043 312.102 817.088 308.034C815.134 303.966 814.156 299.307 814.156 294.057C814.156 288.739 815.156 284.045 817.156 279.977C819.156 275.886 821.974 272.693 825.611 270.398C829.247 268.102 833.531 266.955 838.463 266.955C842.44 266.955 845.986 267.693 849.099 269.17C852.213 270.625 854.724 272.67 856.634 275.307C858.565 277.943 859.713 281.023 860.077 284.545H850.156C849.611 282.091 848.361 279.977 846.406 278.205C844.474 276.432 841.884 275.545 838.634 275.545C835.793 275.545 833.304 276.295 831.168 277.795C829.054 279.273 827.406 281.386 826.224 284.136C825.043 286.864 824.452 290.091 824.452 293.818C824.452 297.636 825.031 300.932 826.19 303.705C827.349 306.477 828.986 308.625 831.099 310.148C833.236 311.67 835.747 312.432 838.634 312.432C840.565 312.432 842.315 312.08 843.884 311.375C845.474 310.648 846.804 309.614 847.872 308.273C848.963 306.932 849.724 305.318 850.156 303.432H860.077C859.713 306.818 858.611 309.841 856.77 312.5C854.929 315.159 852.463 317.25 849.372 318.773C846.304 320.295 842.702 321.057 838.565 321.057ZM893.034 321.057C888.125 321.057 883.841 319.932 880.182 317.682C876.523 315.432 873.682 312.284 871.659 308.239C869.636 304.193 868.625 299.466 868.625 294.057C868.625 288.625 869.636 283.875 871.659 279.807C873.682 275.739 876.523 272.58 880.182 270.33C883.841 268.08 888.125 266.955 893.034 266.955C897.943 266.955 902.227 268.08 905.886 270.33C909.545 272.58 912.386 275.739 914.409 279.807C916.432 283.875 917.443 288.625 917.443 294.057C917.443 299.466 916.432 304.193 914.409 308.239C912.386 312.284 909.545 315.432 905.886 317.682C902.227 319.932 897.943 321.057 893.034 321.057ZM893.068 312.5C896.25 312.5 898.886 311.659 900.977 309.977C903.068 308.295 904.614 306.057 905.614 303.261C906.636 300.466 907.148 297.386 907.148 294.023C907.148 290.682 906.636 287.614 905.614 284.818C904.614 282 903.068 279.739 900.977 278.034C898.886 276.33 896.25 275.477 893.068 275.477C889.864 275.477 887.205 276.33 885.091 278.034C883 279.739 881.443 282 880.42 284.818C879.42 287.614 878.92 290.682 878.92 294.023C878.92 297.386 879.42 300.466 880.42 303.261C881.443 306.057 883 308.295 885.091 309.977C887.205 311.659 889.864 312.5 893.068 312.5ZM964.31 289.42V298.25H935.946V289.42H964.31ZM938.81 267.636V320H928.821V267.636H938.81ZM971.435 267.636V320H961.48V267.636H971.435ZM1000.31 321.159C996.991 321.159 993.991 320.545 991.31 319.318C988.628 318.068 986.503 316.261 984.935 313.898C983.389 311.534 982.616 308.636 982.616 305.205C982.616 302.25 983.185 299.818 984.321 297.909C985.457 296 986.991 294.489 988.923 293.375C990.855 292.261 993.014 291.42 995.401 290.852C997.787 290.284 1000.22 289.852 1002.7 289.557C1005.83 289.193 1008.38 288.898 1010.33 288.67C1012.29 288.42 1013.71 288.023 1014.59 287.477C1015.48 286.932 1015.92 286.045 1015.92 284.818V284.58C1015.92 281.602 1015.08 279.295 1013.4 277.659C1011.74 276.023 1009.26 275.205 1005.97 275.205C1002.54 275.205 999.832 275.966 997.855 277.489C995.901 278.989 994.548 280.659 993.798 282.5L984.219 280.318C985.355 277.136 987.014 274.568 989.196 272.614C991.401 270.636 993.935 269.205 996.798 268.318C999.662 267.409 1002.67 266.955 1005.83 266.955C1007.92 266.955 1010.14 267.205 1012.48 267.705C1014.84 268.182 1017.05 269.068 1019.09 270.364C1021.16 271.659 1022.86 273.511 1024.17 275.92C1025.49 278.307 1026.15 281.409 1026.15 285.227V320H1016.2V312.841H1015.79C1015.13 314.159 1014.14 315.455 1012.82 316.727C1011.5 318 1009.81 319.057 1007.74 319.898C1005.67 320.739 1003.2 321.159 1000.31 321.159ZM1002.53 312.977C1005.34 312.977 1007.75 312.42 1009.75 311.307C1011.78 310.193 1013.31 308.739 1014.36 306.943C1015.42 305.125 1015.96 303.182 1015.96 301.114V294.364C1015.59 294.727 1014.89 295.068 1013.84 295.386C1012.82 295.682 1011.65 295.943 1010.33 296.17C1009.01 296.375 1007.73 296.568 1006.48 296.75C1005.23 296.909 1004.18 297.045 1003.34 297.159C1001.37 297.409 999.56 297.83 997.923 298.42C996.31 299.011 995.014 299.864 994.037 300.977C993.082 302.068 992.605 303.523 992.605 305.341C992.605 307.864 993.537 309.773 995.401 311.068C997.264 312.341 999.639 312.977 1002.53 312.977ZM1035.6 320L1035.57 311.17H1037.44C1038.9 311.17 1040.11 310.864 1041.09 310.25C1042.09 309.614 1042.91 308.545 1043.55 307.045C1044.18 305.545 1044.67 303.477 1045.01 300.841C1045.35 298.182 1045.6 294.841 1045.76 290.818L1046.68 267.636H1083.23V320H1073.24V276.432H1056.12L1055.31 294.227C1055.1 298.545 1054.66 302.318 1053.98 305.545C1053.32 308.773 1052.35 311.466 1051.08 313.625C1049.81 315.761 1048.17 317.364 1046.17 318.432C1044.17 319.477 1041.74 320 1038.88 320H1035.6ZM1104.49 285.636H1119.7C1126.11 285.636 1131.04 287.227 1134.49 290.409C1137.95 293.591 1139.67 297.693 1139.67 302.716C1139.67 305.989 1138.9 308.932 1137.36 311.545C1135.81 314.159 1133.55 316.227 1130.57 317.75C1127.59 319.25 1123.97 320 1119.7 320H1096.82V267.636H1106.81V311.205H1119.7C1122.63 311.205 1125.04 310.443 1126.92 308.92C1128.81 307.375 1129.75 305.409 1129.75 303.023C1129.75 300.5 1128.81 298.443 1126.92 296.852C1125.04 295.239 1122.63 294.432 1119.7 294.432H1104.49V285.636ZM1186.59 289.42V298.25H1158.23V289.42H1186.59ZM1161.09 267.636V320H1151.1V267.636H1161.09ZM1193.72 267.636V320H1183.76V267.636H1193.72ZM1229.41 321.057C1224.5 321.057 1220.22 319.932 1216.56 317.682C1212.9 315.432 1210.06 312.284 1208.03 308.239C1206.01 304.193 1205 299.466 1205 294.057C1205 288.625 1206.01 283.875 1208.03 279.807C1210.06 275.739 1212.9 272.58 1216.56 270.33C1220.22 268.08 1224.5 266.955 1229.41 266.955C1234.32 266.955 1238.6 268.08 1242.26 270.33C1245.92 272.58 1248.76 275.739 1250.78 279.807C1252.81 283.875 1253.82 288.625 1253.82 294.057C1253.82 299.466 1252.81 304.193 1250.78 308.239C1248.76 312.284 1245.92 315.432 1242.26 317.682C1238.6 319.932 1234.32 321.057 1229.41 321.057ZM1229.44 312.5C1232.63 312.5 1235.26 311.659 1237.35 309.977C1239.44 308.295 1240.99 306.057 1241.99 303.261C1243.01 300.466 1243.52 297.386 1243.52 294.023C1243.52 290.682 1243.01 287.614 1241.99 284.818C1240.99 282 1239.44 279.739 1237.35 278.034C1235.26 276.33 1232.63 275.477 1229.44 275.477C1226.24 275.477 1223.58 276.33 1221.47 278.034C1219.38 279.739 1217.82 282 1216.8 284.818C1215.8 287.614 1215.3 290.682 1215.3 294.023C1215.3 297.386 1215.8 300.466 1216.8 303.261C1217.82 306.057 1219.38 308.295 1221.47 309.977C1223.58 311.659 1226.24 312.5 1229.44 312.5ZM1298.67 267.636V276.432H1275.25V320H1265.2V267.636H1298.67ZM1329.07 321.057C1324.16 321.057 1319.87 319.932 1316.21 317.682C1312.55 315.432 1309.71 312.284 1307.69 308.239C1305.67 304.193 1304.66 299.466 1304.66 294.057C1304.66 288.625 1305.67 283.875 1307.69 279.807C1309.71 275.739 1312.55 272.58 1316.21 270.33C1319.87 268.08 1324.16 266.955 1329.07 266.955C1333.97 266.955 1338.26 268.08 1341.92 270.33C1345.58 272.58 1348.42 275.739 1350.44 279.807C1352.46 283.875 1353.47 288.625 1353.47 294.057C1353.47 299.466 1352.46 304.193 1350.44 308.239C1348.42 312.284 1345.58 315.432 1341.92 317.682C1338.26 319.932 1333.97 321.057 1329.07 321.057ZM1329.1 312.5C1332.28 312.5 1334.92 311.659 1337.01 309.977C1339.1 308.295 1340.64 306.057 1341.64 303.261C1342.67 300.466 1343.18 297.386 1343.18 294.023C1343.18 290.682 1342.67 287.614 1341.64 284.818C1340.64 282 1339.1 279.739 1337.01 278.034C1334.92 276.33 1332.28 275.477 1329.1 275.477C1325.89 275.477 1323.24 276.33 1321.12 278.034C1319.03 279.739 1317.47 282 1316.45 284.818C1315.45 287.614 1314.95 290.682 1314.95 294.023C1314.95 297.386 1315.45 300.466 1316.45 303.261C1317.47 306.057 1319.03 308.295 1321.12 309.977C1323.24 311.659 1325.89 312.5 1329.1 312.5ZM915.04 401V348.636H925.233V370.591H930.142L947.426 348.636H960.04L939.756 374.102L960.278 401H947.631L931.847 380.068H925.233V401H915.04ZM988.097 402.057C983.188 402.057 978.903 400.932 975.244 398.682C971.585 396.432 968.744 393.284 966.722 389.239C964.699 385.193 963.688 380.466 963.688 375.057C963.688 369.625 964.699 364.875 966.722 360.807C968.744 356.739 971.585 353.58 975.244 351.33C978.903 349.08 983.188 347.955 988.097 347.955C993.006 347.955 997.29 349.08 1000.95 351.33C1004.61 353.58 1007.45 356.739 1009.47 360.807C1011.49 364.875 1012.51 369.625 1012.51 375.057C1012.51 380.466 1011.49 385.193 1009.47 389.239C1007.45 393.284 1004.61 396.432 1000.95 398.682C997.29 400.932 993.006 402.057 988.097 402.057ZM988.131 393.5C991.313 393.5 993.949 392.659 996.04 390.977C998.131 389.295 999.676 387.057 1000.68 384.261C1001.7 381.466 1002.21 378.386 1002.21 375.023C1002.21 371.682 1001.7 368.614 1000.68 365.818C999.676 363 998.131 360.739 996.04 359.034C993.949 357.33 991.313 356.477 988.131 356.477C984.926 356.477 982.267 357.33 980.153 359.034C978.063 360.739 976.506 363 975.483 365.818C974.483 368.614 973.983 371.682 973.983 375.023C973.983 378.386 974.483 381.466 975.483 384.261C976.506 387.057 978.063 389.295 980.153 390.977C982.267 392.659 984.926 393.5 988.131 393.5ZM1059.37 370.42V379.25H1031.01V370.42H1059.37ZM1033.87 348.636V401H1023.88V348.636H1033.87ZM1066.5 348.636V401H1056.54V348.636H1066.5ZM1073.64 357.432V348.636H1117.82V357.432H1100.74V401H1090.79V357.432H1073.64ZM1148.73 402.057C1143.57 402.057 1139.13 400.955 1135.4 398.75C1131.7 396.523 1128.84 393.398 1126.81 389.375C1124.81 385.33 1123.81 380.591 1123.81 375.159C1123.81 369.795 1124.81 365.068 1126.81 360.977C1128.84 356.886 1131.65 353.693 1135.27 351.398C1138.9 349.102 1143.15 347.955 1148.02 347.955C1150.97 347.955 1153.84 348.443 1156.61 349.42C1159.38 350.398 1161.87 351.932 1164.07 354.023C1166.28 356.114 1168.02 358.83 1169.29 362.17C1170.56 365.489 1171.2 369.523 1171.2 374.273V377.886H1129.57V370.25H1161.21C1161.21 367.568 1160.66 365.193 1159.57 363.125C1158.48 361.034 1156.95 359.386 1154.97 358.182C1153.02 356.977 1150.72 356.375 1148.09 356.375C1145.22 356.375 1142.72 357.08 1140.59 358.489C1138.47 359.875 1136.84 361.693 1135.68 363.943C1134.54 366.17 1133.97 368.591 1133.97 371.205V377.17C1133.97 380.67 1134.59 383.648 1135.81 386.102C1137.06 388.557 1138.8 390.432 1141.03 391.727C1143.26 393 1145.86 393.636 1148.84 393.636C1150.77 393.636 1152.53 393.364 1154.12 392.818C1155.71 392.25 1157.09 391.409 1158.24 390.295C1159.4 389.182 1160.29 387.807 1160.9 386.17L1170.55 387.909C1169.78 390.75 1168.39 393.239 1166.39 395.375C1164.41 397.489 1161.93 399.136 1158.93 400.318C1155.95 401.477 1152.55 402.057 1148.73 402.057ZM1218 370.42V379.25H1189.63V370.42H1218ZM1192.5 348.636V401H1182.51V348.636H1192.5ZM1225.12 348.636V401H1215.17V348.636H1225.12ZM1232.26 357.432V348.636H1276.45V357.432H1259.37V401H1249.41V357.432H1232.26ZM1300.03 402.159C1296.71 402.159 1293.71 401.545 1291.03 400.318C1288.35 399.068 1286.22 397.261 1284.65 394.898C1283.11 392.534 1282.34 389.636 1282.34 386.205C1282.34 383.25 1282.9 380.818 1284.04 378.909C1285.18 377 1286.71 375.489 1288.64 374.375C1290.57 373.261 1292.73 372.42 1295.12 371.852C1297.51 371.284 1299.94 370.852 1302.41 370.557C1305.55 370.193 1308.1 369.898 1310.05 369.67C1312.01 369.42 1313.43 369.023 1314.31 368.477C1315.2 367.932 1315.64 367.045 1315.64 365.818V365.58C1315.64 362.602 1314.8 360.295 1313.12 358.659C1311.46 357.023 1308.98 356.205 1305.69 356.205C1302.26 356.205 1299.55 356.966 1297.57 358.489C1295.62 359.989 1294.27 361.659 1293.52 363.5L1283.94 361.318C1285.07 358.136 1286.73 355.568 1288.91 353.614C1291.12 351.636 1293.65 350.205 1296.52 349.318C1299.38 348.409 1302.39 347.955 1305.55 347.955C1307.64 347.955 1309.86 348.205 1312.2 348.705C1314.56 349.182 1316.77 350.068 1318.81 351.364C1320.88 352.659 1322.57 354.511 1323.89 356.92C1325.21 359.307 1325.87 362.409 1325.87 366.227V401H1315.91V393.841H1315.51C1314.85 395.159 1313.86 396.455 1312.54 397.727C1311.22 399 1309.53 400.057 1307.46 400.898C1305.39 401.739 1302.91 402.159 1300.03 402.159ZM1302.24 393.977C1305.06 393.977 1307.47 393.42 1309.47 392.307C1311.49 391.193 1313.03 389.739 1314.07 387.943C1315.14 386.125 1315.68 384.182 1315.68 382.114V375.364C1315.31 375.727 1314.61 376.068 1313.56 376.386C1312.54 376.682 1311.37 376.943 1310.05 377.17C1308.73 377.375 1307.45 377.568 1306.2 377.75C1304.95 377.909 1303.9 378.045 1303.06 378.159C1301.09 378.409 1299.28 378.83 1297.64 379.42C1296.03 380.011 1294.73 380.864 1293.76 381.977C1292.8 383.068 1292.32 384.523 1292.32 386.341C1292.32 388.864 1293.26 390.773 1295.12 392.068C1296.98 393.341 1299.36 393.977 1302.24 393.977ZM681.645 497.102V473.17H685.906C686.997 472.17 687.918 470.977 688.668 469.591C689.44 468.205 690.088 466.557 690.611 464.648C691.156 462.739 691.611 460.511 691.974 457.966C692.338 455.398 692.656 452.466 692.929 449.17L694.565 429.636H730.156V473.17H738.202V497.102H728.247V482H691.736V497.102H681.645ZM696.815 473.17H720.202V438.364H703.702L702.611 449.17C702.088 454.67 701.429 459.443 700.634 463.489C699.838 467.511 698.565 470.739 696.815 473.17ZM770.222 483.057C765.313 483.057 761.028 481.932 757.369 479.682C753.71 477.432 750.869 474.284 748.847 470.239C746.824 466.193 745.812 461.466 745.812 456.057C745.812 450.625 746.824 445.875 748.847 441.807C750.869 437.739 753.71 434.58 757.369 432.33C761.028 430.08 765.313 428.955 770.222 428.955C775.131 428.955 779.415 430.08 783.074 432.33C786.733 434.58 789.574 437.739 791.597 441.807C793.619 445.875 794.631 450.625 794.631 456.057C794.631 461.466 793.619 466.193 791.597 470.239C789.574 474.284 786.733 477.432 783.074 479.682C779.415 481.932 775.131 483.057 770.222 483.057ZM770.256 474.5C773.438 474.5 776.074 473.659 778.165 471.977C780.256 470.295 781.801 468.057 782.801 465.261C783.824 462.466 784.335 459.386 784.335 456.023C784.335 452.682 783.824 449.614 782.801 446.818C781.801 444 780.256 441.739 778.165 440.034C776.074 438.33 773.438 437.477 770.256 437.477C767.051 437.477 764.392 438.33 762.278 440.034C760.188 441.739 758.631 444 757.608 446.818C756.608 449.614 756.108 452.682 756.108 456.023C756.108 459.386 756.608 462.466 757.608 465.261C758.631 468.057 760.188 470.295 762.278 471.977C764.392 473.659 767.051 474.5 770.256 474.5ZM828.483 438.432V429.636H872.665V438.432H855.585V482H845.631V438.432H828.483ZM903.065 483.057C898.156 483.057 893.872 481.932 890.213 479.682C886.554 477.432 883.713 474.284 881.69 470.239C879.668 466.193 878.656 461.466 878.656 456.057C878.656 450.625 879.668 445.875 881.69 441.807C883.713 437.739 886.554 434.58 890.213 432.33C893.872 430.08 898.156 428.955 903.065 428.955C907.974 428.955 912.259 430.08 915.918 432.33C919.577 434.58 922.418 437.739 924.44 441.807C926.463 445.875 927.474 450.625 927.474 456.057C927.474 461.466 926.463 466.193 924.44 470.239C922.418 474.284 919.577 477.432 915.918 479.682C912.259 481.932 907.974 483.057 903.065 483.057ZM903.099 474.5C906.281 474.5 908.918 473.659 911.009 471.977C913.099 470.295 914.645 468.057 915.645 465.261C916.668 462.466 917.179 459.386 917.179 456.023C917.179 452.682 916.668 449.614 915.645 446.818C914.645 444 913.099 441.739 911.009 440.034C908.918 438.33 906.281 437.477 903.099 437.477C899.895 437.477 897.236 438.33 895.122 440.034C893.031 441.739 891.474 444 890.452 446.818C889.452 449.614 888.952 452.682 888.952 456.023C888.952 459.386 889.452 462.466 890.452 465.261C891.474 468.057 893.031 470.295 895.122 471.977C897.236 473.659 899.895 474.5 903.099 474.5ZM932.545 438.432V429.636H976.727V438.432H959.648V482H949.693V438.432H932.545ZM1000.31 483.159C996.991 483.159 993.991 482.545 991.31 481.318C988.628 480.068 986.503 478.261 984.935 475.898C983.389 473.534 982.616 470.636 982.616 467.205C982.616 464.25 983.185 461.818 984.321 459.909C985.457 458 986.991 456.489 988.923 455.375C990.855 454.261 993.014 453.42 995.401 452.852C997.787 452.284 1000.22 451.852 1002.7 451.557C1005.83 451.193 1008.38 450.898 1010.33 450.67C1012.29 450.42 1013.71 450.023 1014.59 449.477C1015.48 448.932 1015.92 448.045 1015.92 446.818V446.58C1015.92 443.602 1015.08 441.295 1013.4 439.659C1011.74 438.023 1009.26 437.205 1005.97 437.205C1002.54 437.205 999.832 437.966 997.855 439.489C995.901 440.989 994.548 442.659 993.798 444.5L984.219 442.318C985.355 439.136 987.014 436.568 989.196 434.614C991.401 432.636 993.935 431.205 996.798 430.318C999.662 429.409 1002.67 428.955 1005.83 428.955C1007.92 428.955 1010.14 429.205 1012.48 429.705C1014.84 430.182 1017.05 431.068 1019.09 432.364C1021.16 433.659 1022.86 435.511 1024.17 437.92C1025.49 440.307 1026.15 443.409 1026.15 447.227V482H1016.2V474.841H1015.79C1015.13 476.159 1014.14 477.455 1012.82 478.727C1011.5 480 1009.81 481.057 1007.74 481.898C1005.67 482.739 1003.2 483.159 1000.31 483.159ZM1002.53 474.977C1005.34 474.977 1007.75 474.42 1009.75 473.307C1011.78 472.193 1013.31 470.739 1014.36 468.943C1015.42 467.125 1015.96 465.182 1015.96 463.114V456.364C1015.59 456.727 1014.89 457.068 1013.84 457.386C1012.82 457.682 1011.65 457.943 1010.33 458.17C1009.01 458.375 1007.73 458.568 1006.48 458.75C1005.23 458.909 1004.18 459.045 1003.34 459.159C1001.37 459.409 999.56 459.83 997.923 460.42C996.31 461.011 995.014 461.864 994.037 462.977C993.082 464.068 992.605 465.523 992.605 467.341C992.605 469.864 993.537 471.773 995.401 473.068C997.264 474.341 999.639 474.977 1002.53 474.977ZM1035.6 482L1035.57 473.17H1037.44C1038.9 473.17 1040.11 472.864 1041.09 472.25C1042.09 471.614 1042.91 470.545 1043.55 469.045C1044.18 467.545 1044.67 465.477 1045.01 462.841C1045.35 460.182 1045.6 456.841 1045.76 452.818L1046.68 429.636H1083.23V482H1073.24V438.432H1056.12L1055.31 456.227C1055.1 460.545 1054.66 464.318 1053.98 467.545C1053.32 470.773 1052.35 473.466 1051.08 475.625C1049.81 477.761 1048.17 479.364 1046.17 480.432C1044.17 481.477 1041.74 482 1038.88 482H1035.6ZM1104.49 447.636H1119.7C1126.11 447.636 1131.04 449.227 1134.49 452.409C1137.95 455.591 1139.67 459.693 1139.67 464.716C1139.67 467.989 1138.9 470.932 1137.36 473.545C1135.81 476.159 1133.55 478.227 1130.57 479.75C1127.59 481.25 1123.97 482 1119.7 482H1096.82V429.636H1106.81V473.205H1119.7C1122.63 473.205 1125.04 472.443 1126.92 470.92C1128.81 469.375 1129.75 467.409 1129.75 465.023C1129.75 462.5 1128.81 460.443 1126.92 458.852C1125.04 457.239 1122.63 456.432 1119.7 456.432H1104.49V447.636ZM1186.59 451.42V460.25H1158.23V451.42H1186.59ZM1161.09 429.636V482H1151.1V429.636H1161.09ZM1193.72 429.636V482H1183.76V429.636H1193.72ZM1229.41 483.057C1224.5 483.057 1220.22 481.932 1216.56 479.682C1212.9 477.432 1210.06 474.284 1208.03 470.239C1206.01 466.193 1205 461.466 1205 456.057C1205 450.625 1206.01 445.875 1208.03 441.807C1210.06 437.739 1212.9 434.58 1216.56 432.33C1220.22 430.08 1224.5 428.955 1229.41 428.955C1234.32 428.955 1238.6 430.08 1242.26 432.33C1245.92 434.58 1248.76 437.739 1250.78 441.807C1252.81 445.875 1253.82 450.625 1253.82 456.057C1253.82 461.466 1252.81 466.193 1250.78 470.239C1248.76 474.284 1245.92 477.432 1242.26 479.682C1238.6 481.932 1234.32 483.057 1229.41 483.057ZM1229.44 474.5C1232.63 474.5 1235.26 473.659 1237.35 471.977C1239.44 470.295 1240.99 468.057 1241.99 465.261C1243.01 462.466 1243.52 459.386 1243.52 456.023C1243.52 452.682 1243.01 449.614 1241.99 446.818C1240.99 444 1239.44 441.739 1237.35 440.034C1235.26 438.33 1232.63 437.477 1229.44 437.477C1226.24 437.477 1223.58 438.33 1221.47 440.034C1219.38 441.739 1217.82 444 1216.8 446.818C1215.8 449.614 1215.3 452.682 1215.3 456.023C1215.3 459.386 1215.8 462.466 1216.8 465.261C1217.82 468.057 1219.38 470.295 1221.47 471.977C1223.58 473.659 1226.24 474.5 1229.44 474.5ZM1298.67 429.636V438.432H1275.25V482H1265.2V429.636H1298.67ZM1329.07 483.057C1324.16 483.057 1319.87 481.932 1316.21 479.682C1312.55 477.432 1309.71 474.284 1307.69 470.239C1305.67 466.193 1304.66 461.466 1304.66 456.057C1304.66 450.625 1305.67 445.875 1307.69 441.807C1309.71 437.739 1312.55 434.58 1316.21 432.33C1319.87 430.08 1324.16 428.955 1329.07 428.955C1333.97 428.955 1338.26 430.08 1341.92 432.33C1345.58 434.58 1348.42 437.739 1350.44 441.807C1352.46 445.875 1353.47 450.625 1353.47 456.057C1353.47 461.466 1352.46 466.193 1350.44 470.239C1348.42 474.284 1345.58 477.432 1341.92 479.682C1338.26 481.932 1333.97 483.057 1329.07 483.057ZM1329.1 474.5C1332.28 474.5 1334.92 473.659 1337.01 471.977C1339.1 470.295 1340.64 468.057 1341.64 465.261C1342.67 462.466 1343.18 459.386 1343.18 456.023C1343.18 452.682 1342.67 449.614 1341.64 446.818C1340.64 444 1339.1 441.739 1337.01 440.034C1334.92 438.33 1332.28 437.477 1329.1 437.477C1325.89 437.477 1323.24 438.33 1321.12 440.034C1319.03 441.739 1317.47 444 1316.45 446.818C1315.45 449.614 1314.95 452.682 1314.95 456.023C1314.95 459.386 1315.45 462.466 1316.45 465.261C1317.47 468.057 1319.03 470.295 1321.12 471.977C1323.24 473.659 1325.89 474.5 1329.1 474.5ZM886.403 532.42V541.25H858.04V532.42H886.403ZM860.903 510.636V563H850.915V510.636H860.903ZM893.528 510.636V563H883.574V510.636H893.528ZM929.733 564.057C924.574 564.057 920.131 562.955 916.403 560.75C912.699 558.523 909.835 555.398 907.812 551.375C905.812 547.33 904.812 542.591 904.812 537.159C904.812 531.795 905.812 527.068 907.812 522.977C909.835 518.886 912.653 515.693 916.267 513.398C919.903 511.102 924.153 509.955 929.017 509.955C931.972 509.955 934.835 510.443 937.608 511.42C940.381 512.398 942.869 513.932 945.074 516.023C947.278 518.114 949.017 520.83 950.29 524.17C951.563 527.489 952.199 531.523 952.199 536.273V539.886H910.574V532.25H942.21C942.21 529.568 941.665 527.193 940.574 525.125C939.483 523.034 937.949 521.386 935.972 520.182C934.017 518.977 931.722 518.375 929.085 518.375C926.222 518.375 923.722 519.08 921.585 520.489C919.472 521.875 917.835 523.693 916.676 525.943C915.54 528.17 914.972 530.591 914.972 533.205V539.17C914.972 542.67 915.585 545.648 916.812 548.102C918.062 550.557 919.801 552.432 922.028 553.727C924.256 555 926.858 555.636 929.835 555.636C931.767 555.636 933.528 555.364 935.119 554.818C936.71 554.25 938.085 553.409 939.244 552.295C940.403 551.182 941.29 549.807 941.903 548.17L951.551 549.909C950.778 552.75 949.392 555.239 947.392 557.375C945.415 559.489 942.926 561.136 939.926 562.318C936.949 563.477 933.551 564.057 929.733 564.057ZM958.395 578.102V554.17H962.656C963.747 553.17 964.668 551.977 965.418 550.591C966.19 549.205 966.838 547.557 967.361 545.648C967.906 543.739 968.361 541.511 968.724 538.966C969.088 536.398 969.406 533.466 969.679 530.17L971.315 510.636H1006.91V554.17H1014.95V578.102H1005V563H968.486V578.102H958.395ZM973.565 554.17H996.952V519.364H980.452L979.361 530.17C978.838 535.67 978.179 540.443 977.384 544.489C976.588 548.511 975.315 551.739 973.565 554.17ZM1046.97 564.057C1042.06 564.057 1037.78 562.932 1034.12 560.682C1030.46 558.432 1027.62 555.284 1025.6 551.239C1023.57 547.193 1022.56 542.466 1022.56 537.057C1022.56 531.625 1023.57 526.875 1025.6 522.807C1027.62 518.739 1030.46 515.58 1034.12 513.33C1037.78 511.08 1042.06 509.955 1046.97 509.955C1051.88 509.955 1056.16 511.08 1059.82 513.33C1063.48 515.58 1066.32 518.739 1068.35 522.807C1070.37 526.875 1071.38 531.625 1071.38 537.057C1071.38 542.466 1070.37 547.193 1068.35 551.239C1066.32 555.284 1063.48 558.432 1059.82 560.682C1056.16 562.932 1051.88 564.057 1046.97 564.057ZM1047.01 555.5C1050.19 555.5 1052.82 554.659 1054.91 552.977C1057.01 551.295 1058.55 549.057 1059.55 546.261C1060.57 543.466 1061.09 540.386 1061.09 537.023C1061.09 533.682 1060.57 530.614 1059.55 527.818C1058.55 525 1057.01 522.739 1054.91 521.034C1052.82 519.33 1050.19 518.477 1047.01 518.477C1043.8 518.477 1041.14 519.33 1039.03 521.034C1036.94 522.739 1035.38 525 1034.36 527.818C1033.36 530.614 1032.86 533.682 1032.86 537.023C1032.86 540.386 1033.36 543.466 1034.36 546.261C1035.38 549.057 1036.94 551.295 1039.03 552.977C1041.14 554.659 1043.8 555.5 1047.01 555.5ZM1082.76 563V510.636H1104.47C1110.38 510.636 1115.07 511.898 1118.52 514.42C1121.97 516.92 1123.7 520.318 1123.7 524.614C1123.7 527.682 1122.72 530.114 1120.77 531.909C1118.82 533.705 1116.22 534.909 1113 535.523C1115.34 535.795 1117.49 536.5 1119.44 537.636C1121.39 538.75 1122.96 540.25 1124.14 542.136C1125.35 544.023 1125.95 546.273 1125.95 548.886C1125.95 551.659 1125.24 554.114 1123.8 556.25C1122.37 558.364 1120.29 560.023 1117.57 561.227C1114.86 562.409 1111.6 563 1107.78 563H1082.76ZM1092.34 554.477H1107.78C1110.3 554.477 1112.28 553.875 1113.71 552.67C1115.14 551.466 1115.86 549.83 1115.86 547.761C1115.86 545.33 1115.14 543.42 1113.71 542.034C1112.28 540.625 1110.3 539.92 1107.78 539.92H1092.34V554.477ZM1092.34 532.455H1104.58C1106.49 532.455 1108.12 532.182 1109.49 531.636C1110.87 531.091 1111.93 530.318 1112.66 529.318C1113.41 528.295 1113.78 527.091 1113.78 525.705C1113.78 523.682 1112.95 522.102 1111.29 520.966C1109.63 519.83 1107.36 519.261 1104.47 519.261H1092.34V532.455ZM1159.7 564.057C1154.54 564.057 1150.1 562.955 1146.37 560.75C1142.67 558.523 1139.8 555.398 1137.78 551.375C1135.78 547.33 1134.78 542.591 1134.78 537.159C1134.78 531.795 1135.78 527.068 1137.78 522.977C1139.8 518.886 1142.62 515.693 1146.24 513.398C1149.87 511.102 1154.12 509.955 1158.99 509.955C1161.94 509.955 1164.8 510.443 1167.58 511.42C1170.35 512.398 1172.84 513.932 1175.04 516.023C1177.25 518.114 1178.99 520.83 1180.26 524.17C1181.53 527.489 1182.17 531.523 1182.17 536.273V539.886H1140.54V532.25H1172.18C1172.18 529.568 1171.63 527.193 1170.54 525.125C1169.45 523.034 1167.92 521.386 1165.94 520.182C1163.99 518.977 1161.69 518.375 1159.05 518.375C1156.19 518.375 1153.69 519.08 1151.55 520.489C1149.44 521.875 1147.8 523.693 1146.64 525.943C1145.51 528.17 1144.94 530.591 1144.94 533.205V539.17C1144.94 542.67 1145.55 545.648 1146.78 548.102C1148.03 550.557 1149.77 552.432 1152 553.727C1154.22 555 1156.83 555.636 1159.8 555.636C1161.74 555.636 1163.5 555.364 1165.09 554.818C1166.68 554.25 1168.05 553.409 1169.21 552.295C1170.37 551.182 1171.26 549.807 1171.87 548.17L1181.52 549.909C1180.75 552.75 1179.36 555.239 1177.36 557.375C1175.38 559.489 1172.89 561.136 1169.89 562.318C1166.92 563.477 1163.52 564.057 1159.7 564.057ZM1193.48 582.636V510.636H1203.43V519.125H1204.28C1204.88 518.034 1205.73 516.773 1206.84 515.341C1207.95 513.909 1209.5 512.659 1211.48 511.591C1213.45 510.5 1216.07 509.955 1219.32 509.955C1223.55 509.955 1227.32 511.023 1230.64 513.159C1233.95 515.295 1236.56 518.375 1238.44 522.398C1240.35 526.42 1241.31 531.261 1241.31 536.92C1241.31 542.58 1240.36 547.432 1238.48 551.477C1236.59 555.5 1234 558.602 1230.7 560.784C1227.41 562.943 1223.65 564.023 1219.42 564.023C1216.24 564.023 1213.64 563.489 1211.61 562.42C1209.61 561.352 1208.05 560.102 1206.91 558.67C1205.77 557.239 1204.9 555.966 1204.28 554.852H1203.67V582.636H1193.48ZM1203.47 536.818C1203.47 540.5 1204 543.727 1205.07 546.5C1206.14 549.273 1207.68 551.443 1209.7 553.011C1211.73 554.557 1214.2 555.33 1217.14 555.33C1220.18 555.33 1222.73 554.523 1224.77 552.909C1226.82 551.273 1228.36 549.057 1229.41 546.261C1230.48 543.466 1231.01 540.318 1231.01 536.818C1231.01 533.364 1230.49 530.261 1229.44 527.511C1228.42 524.761 1226.88 522.591 1224.81 521C1222.76 519.409 1220.2 518.614 1217.14 518.614C1214.18 518.614 1211.68 519.375 1209.64 520.898C1207.61 522.42 1206.08 524.545 1205.03 527.273C1203.99 530 1203.47 533.182 1203.47 536.818ZM1262.72 548.716L1285.8 510.636H1296.77V563H1286.78V524.886L1263.81 563H1252.73V510.636H1262.72V548.716ZM1341.7 563V519.33H1329.16C1326.18 519.33 1323.86 520.023 1322.2 521.409C1320.55 522.795 1319.72 524.614 1319.72 526.864C1319.72 529.091 1320.48 530.886 1322 532.25C1323.55 533.591 1325.7 534.261 1328.48 534.261H1344.67V542.511H1328.48C1324.61 542.511 1321.27 541.875 1318.45 540.602C1315.66 539.307 1313.5 537.477 1311.98 535.114C1310.48 532.75 1309.73 529.955 1309.73 526.727C1309.73 523.432 1310.5 520.591 1312.05 518.205C1313.61 515.795 1315.85 513.932 1318.76 512.614C1321.69 511.295 1325.16 510.636 1329.16 510.636H1351.28V563H1341.7ZM1307.34 563L1322.1 536.545H1332.53L1317.77 563H1307.34Z" fill="white"/>
</g>
<defs>
<clipPath id="clip0_231_351">
<rect width="1440" height="720" fill="white"/>
</clipPath>
</defs>
</svg>
