<svg width="1440" height="720" viewBox="0 0 1440 720" fill="none" xmlns="http://www.w3.org/2000/svg">
<g clip-path="url(#clip0_231_351)">
<rect width="1440" height="720" fill="#CCCACD"/>
<path d="M1416.52 719.5H1376.11L1376.02 719.126L1375.98 719H1416.5L1416.52 719.5ZM1440 719H1416.5L1416.5 718.981L1398.5 243.481L1398.5 243.381L1398.45 243.291L1354.22 147.373L1391.09 140.491L1391.5 140.415V95H1416.5V30.0156L1416.02 30L1053.52 18.5H989V57.375L909.329 39.5605L897.938 18.7598L897.788 18.4863L897.477 18.501L451.477 39.501L451.283 39.5098L433.293 57.5H387.82L371.454 21.792L371.321 21.5H123V57.0273L69.291 18.5938L69.1602 18.5H50.9717L50.9424 18.5029L24.9424 21.5029L24.1689 21.5928L24.5723 22.2588L50.291 64.7949L24.7764 77.5527L24.5 77.6914V216H60.5V304H24.5V613H68.5V710H166.5V687H567.739L583.59 709.785L583.738 710H1112.56L1112.63 709.983L1243.56 675.5H1364.61L1375.98 719H0V-1H1440V719Z" fill="black"/>
<path d="M143.091 239L119.636 207.705H112.205V239H101.67V169.182H112.205V198.67H115.648L142.034 169.182H154.886L126.966 200.443L155.943 239H143.091ZM180.122 240.159C176.804 240.159 173.804 239.545 171.122 238.318C168.44 237.068 166.315 235.261 164.747 232.898C163.202 230.534 162.429 227.636 162.429 224.205C162.429 221.25 162.997 218.818 164.134 216.909C165.27 215 166.804 213.489 168.736 212.375C170.668 211.261 172.827 210.42 175.213 209.852C177.599 209.284 180.031 208.852 182.509 208.557C185.645 208.193 188.19 207.898 190.145 207.67C192.099 207.42 193.52 207.023 194.406 206.477C195.293 205.932 195.736 205.045 195.736 203.818V203.58C195.736 200.602 194.895 198.295 193.213 196.659C191.554 195.023 189.077 194.205 185.781 194.205C182.349 194.205 179.645 194.966 177.668 196.489C175.713 197.989 174.361 199.659 173.611 201.5L164.031 199.318C165.168 196.136 166.827 193.568 169.009 191.614C171.213 189.636 173.747 188.205 176.611 187.318C179.474 186.409 182.486 185.955 185.645 185.955C187.736 185.955 189.952 186.205 192.293 186.705C194.656 187.182 196.861 188.068 198.906 189.364C200.974 190.659 202.668 192.511 203.986 194.92C205.304 197.307 205.963 200.409 205.963 204.227V239H196.009V231.841H195.599C194.94 233.159 193.952 234.455 192.634 235.727C191.315 237 189.622 238.057 187.554 238.898C185.486 239.739 183.009 240.159 180.122 240.159ZM182.338 231.977C185.156 231.977 187.565 231.42 189.565 230.307C191.588 229.193 193.122 227.739 194.168 225.943C195.236 224.125 195.77 222.182 195.77 220.114V213.364C195.406 213.727 194.702 214.068 193.656 214.386C192.634 214.682 191.463 214.943 190.145 215.17C188.827 215.375 187.543 215.568 186.293 215.75C185.043 215.909 183.997 216.045 183.156 216.159C181.179 216.409 179.372 216.83 177.736 217.42C176.122 218.011 174.827 218.864 173.849 219.977C172.895 221.068 172.418 222.523 172.418 224.341C172.418 226.864 173.349 228.773 175.213 230.068C177.077 231.341 179.452 231.977 182.338 231.977ZM219.54 239V186.636H229.733V208.591H234.642L251.926 186.636H264.54L244.256 212.102L264.778 239H252.131L236.347 218.068H229.733V239H219.54ZM95.7386 335.102V311.17H100C101.091 310.17 102.011 308.977 102.761 307.591C103.534 306.205 104.182 304.557 104.705 302.648C105.25 300.739 105.705 298.511 106.068 295.966C106.432 293.398 106.75 290.466 107.023 287.17L108.659 267.636H144.25V311.17H152.295V335.102H142.341V320H105.83V335.102H95.7386ZM110.909 311.17H134.295V276.364H117.795L116.705 287.17C116.182 292.67 115.523 297.443 114.727 301.489C113.932 305.511 112.659 308.739 110.909 311.17ZM172.247 305.716L195.327 267.636H206.304V320H196.315V281.886L173.338 320H162.259V267.636H172.247V305.716ZM220.009 320V267.636H262.724V320H252.736V276.432H229.929V320H220.009ZM298.886 337.83V250.182H309.08V337.83H298.886ZM298.886 321.057C295.182 321.057 291.807 320.42 288.761 319.148C285.716 317.852 283.091 316.011 280.886 313.625C278.682 311.239 276.977 308.386 275.773 305.068C274.591 301.75 274 298.08 274 294.057C274 289.989 274.591 286.295 275.773 282.977C276.977 279.659 278.682 276.807 280.886 274.42C283.091 272.034 285.716 270.193 288.761 268.898C291.807 267.602 295.182 266.955 298.886 266.955H301.409V321.057H298.886ZM298.886 312.466H300.318V275.545H298.886C296.432 275.545 294.295 276.045 292.477 277.045C290.659 278.023 289.148 279.375 287.943 281.102C286.739 282.807 285.83 284.773 285.216 287C284.625 289.227 284.33 291.58 284.33 294.057C284.33 297.375 284.864 300.432 285.932 303.227C287 306 288.614 308.239 290.773 309.943C292.932 311.625 295.636 312.466 298.886 312.466ZM309.08 321.057H306.523V266.955H309.08C312.784 266.955 316.159 267.602 319.205 268.898C322.25 270.193 324.864 272.034 327.045 274.42C329.25 276.807 330.943 279.659 332.125 282.977C333.33 286.295 333.932 289.989 333.932 294.057C333.932 298.08 333.33 301.75 332.125 305.068C330.943 308.386 329.25 311.239 327.045 313.625C324.864 316.011 322.25 317.852 319.205 319.148C316.159 320.42 312.784 321.057 309.08 321.057ZM309.08 312.466C311.534 312.466 313.67 311.989 315.489 311.034C317.307 310.057 318.818 308.716 320.023 307.011C321.227 305.284 322.125 303.318 322.716 301.114C323.307 298.886 323.602 296.534 323.602 294.057C323.602 290.761 323.068 287.716 322 284.92C320.955 282.102 319.352 279.841 317.193 278.136C315.034 276.409 312.33 275.545 309.08 275.545H307.614V312.466H309.08ZM367.827 321.057C362.668 321.057 358.224 319.955 354.497 317.75C350.793 315.523 347.929 312.398 345.906 308.375C343.906 304.33 342.906 299.591 342.906 294.159C342.906 288.795 343.906 284.068 345.906 279.977C347.929 275.886 350.747 272.693 354.361 270.398C357.997 268.102 362.247 266.955 367.111 266.955C370.065 266.955 372.929 267.443 375.702 268.42C378.474 269.398 380.963 270.932 383.168 273.023C385.372 275.114 387.111 277.83 388.384 281.17C389.656 284.489 390.293 288.523 390.293 293.273V296.886H348.668V289.25H380.304C380.304 286.568 379.759 284.193 378.668 282.125C377.577 280.034 376.043 278.386 374.065 277.182C372.111 275.977 369.815 275.375 367.179 275.375C364.315 275.375 361.815 276.08 359.679 277.489C357.565 278.875 355.929 280.693 354.77 282.943C353.634 285.17 353.065 287.591 353.065 290.205V296.17C353.065 299.67 353.679 302.648 354.906 305.102C356.156 307.557 357.895 309.432 360.122 310.727C362.349 312 364.952 312.636 367.929 312.636C369.861 312.636 371.622 312.364 373.213 311.818C374.804 311.25 376.179 310.409 377.338 309.295C378.497 308.182 379.384 306.807 379.997 305.17L389.645 306.909C388.872 309.75 387.486 312.239 385.486 314.375C383.509 316.489 381.02 318.136 378.02 319.318C375.043 320.477 371.645 321.057 367.827 321.057ZM411.591 305.716L434.67 267.636H445.648V320H435.659V281.886L412.682 320H401.602V267.636H411.591V305.716ZM430.307 249.909H438.693C438.693 253.75 437.33 256.875 434.602 259.284C431.898 261.67 428.239 262.864 423.625 262.864C419.034 262.864 415.386 261.67 412.682 259.284C409.977 256.875 408.625 253.75 408.625 249.909H416.977C416.977 251.614 417.477 253.125 418.477 254.443C419.477 255.739 421.193 256.386 423.625 256.386C426.011 256.386 427.716 255.739 428.739 254.443C429.784 253.148 430.307 251.636 430.307 249.909ZM459.352 320V267.636H469.545V289.591H474.455L491.739 267.636H504.352L484.068 293.102L504.591 320H491.943L476.159 299.068H469.545V320H459.352ZM522.497 305.716L545.577 267.636H556.554V320H546.565V281.886L523.588 320H512.509V267.636H522.497V305.716ZM130.239 388.386L147.148 348.636H155.943L134.023 401H126.455L104.977 348.636H113.67L130.239 388.386ZM110.841 348.636V401H100.852V348.636H110.841ZM149.909 401V348.636H159.83V401H149.909ZM195.472 402.057C190.563 402.057 186.278 400.932 182.619 398.682C178.96 396.432 176.119 393.284 174.097 389.239C172.074 385.193 171.062 380.466 171.062 375.057C171.062 369.625 172.074 364.875 174.097 360.807C176.119 356.739 178.96 353.58 182.619 351.33C186.278 349.08 190.563 347.955 195.472 347.955C200.381 347.955 204.665 349.08 208.324 351.33C211.983 353.58 214.824 356.739 216.847 360.807C218.869 364.875 219.881 369.625 219.881 375.057C219.881 380.466 218.869 385.193 216.847 389.239C214.824 393.284 211.983 396.432 208.324 398.682C204.665 400.932 200.381 402.057 195.472 402.057ZM195.506 393.5C198.688 393.5 201.324 392.659 203.415 390.977C205.506 389.295 207.051 387.057 208.051 384.261C209.074 381.466 209.585 378.386 209.585 375.023C209.585 371.682 209.074 368.614 208.051 365.818C207.051 363 205.506 360.739 203.415 359.034C201.324 357.33 198.688 356.477 195.506 356.477C192.301 356.477 189.642 357.33 187.528 359.034C185.438 360.739 183.881 363 182.858 365.818C181.858 368.614 181.358 371.682 181.358 375.023C181.358 378.386 181.858 381.466 182.858 384.261C183.881 387.057 185.438 389.295 187.528 390.977C189.642 392.659 192.301 393.5 195.506 393.5ZM264.736 348.636V357.432H241.315V401H231.259V348.636H264.736ZM281.952 420.636C280.429 420.636 279.043 420.511 277.793 420.261C276.543 420.034 275.611 419.784 274.997 419.511L277.452 411.159C279.315 411.659 280.974 411.875 282.429 411.807C283.884 411.739 285.168 411.193 286.281 410.17C287.418 409.148 288.418 407.477 289.281 405.159L290.543 401.682L271.384 348.636H282.293L295.554 389.273H296.099L309.361 348.636H320.304L298.724 407.989C297.724 410.716 296.452 413.023 294.906 414.909C293.361 416.818 291.52 418.25 289.384 419.205C287.247 420.159 284.77 420.636 281.952 420.636ZM326.952 357.432V348.636H371.134V357.432H354.054V401H344.099V357.432H326.952ZM110.841 467.716L133.92 429.636H144.898V482H134.909V443.886L111.932 482H100.852V429.636H110.841V467.716ZM155.5 468.159H165.932C166.068 470.295 167.034 471.943 168.83 473.102C170.648 474.261 173 474.841 175.886 474.841C178.818 474.841 181.318 474.216 183.386 472.966C185.455 471.693 186.489 469.727 186.489 467.068C186.489 465.477 186.091 464.091 185.295 462.909C184.523 461.705 183.42 460.773 181.989 460.114C180.58 459.455 178.909 459.125 176.977 459.125H168.455V451.114H176.977C179.864 451.114 182.023 450.455 183.455 449.136C184.886 447.818 185.602 446.17 185.602 444.193C185.602 442.057 184.83 440.341 183.284 439.045C181.761 437.727 179.636 437.068 176.909 437.068C174.136 437.068 171.83 437.693 169.989 438.943C168.148 440.17 167.182 441.761 167.091 443.716H156.795C156.864 440.784 157.75 438.216 159.455 436.011C161.182 433.784 163.5 432.057 166.409 430.83C169.341 429.58 172.67 428.955 176.398 428.955C180.284 428.955 183.648 429.58 186.489 430.83C189.33 432.08 191.523 433.807 193.068 436.011C194.636 438.216 195.42 440.75 195.42 443.614C195.42 446.5 194.557 448.864 192.83 450.705C191.125 452.523 188.898 453.83 186.148 454.625V455.17C188.17 455.307 189.966 455.92 191.534 457.011C193.102 458.102 194.33 459.545 195.216 461.341C196.102 463.136 196.545 465.17 196.545 467.443C196.545 470.648 195.659 473.42 193.886 475.761C192.136 478.102 189.705 479.909 186.591 481.182C183.5 482.432 179.966 483.057 175.989 483.057C172.125 483.057 168.659 482.455 165.591 481.25C162.545 480.023 160.125 478.295 158.33 476.068C156.557 473.841 155.614 471.205 155.5 468.159ZM236.457 469.386L253.366 429.636H262.162L240.241 482H232.673L211.196 429.636H219.889L236.457 469.386ZM217.06 429.636V482H207.071V429.636H217.06ZM256.128 482V429.636H266.048V482H256.128ZM302.202 483.057C297.043 483.057 292.599 481.955 288.872 479.75C285.168 477.523 282.304 474.398 280.281 470.375C278.281 466.33 277.281 461.591 277.281 456.159C277.281 450.795 278.281 446.068 280.281 441.977C282.304 437.886 285.122 434.693 288.736 432.398C292.372 430.102 296.622 428.955 301.486 428.955C304.44 428.955 307.304 429.443 310.077 430.42C312.849 431.398 315.338 432.932 317.543 435.023C319.747 437.114 321.486 439.83 322.759 443.17C324.031 446.489 324.668 450.523 324.668 455.273V458.886H283.043V451.25H314.679C314.679 448.568 314.134 446.193 313.043 444.125C311.952 442.034 310.418 440.386 308.44 439.182C306.486 437.977 304.19 437.375 301.554 437.375C298.69 437.375 296.19 438.08 294.054 439.489C291.94 440.875 290.304 442.693 289.145 444.943C288.009 447.17 287.44 449.591 287.44 452.205V458.17C287.44 461.67 288.054 464.648 289.281 467.102C290.531 469.557 292.27 471.432 294.497 472.727C296.724 474 299.327 474.636 302.304 474.636C304.236 474.636 305.997 474.364 307.588 473.818C309.179 473.25 310.554 472.409 311.713 471.295C312.872 470.182 313.759 468.807 314.372 467.17L324.02 468.909C323.247 471.75 321.861 474.239 319.861 476.375C317.884 478.489 315.395 480.136 312.395 481.318C309.418 482.477 306.02 483.057 302.202 483.057ZM371.466 451.42V460.25H343.102V451.42H371.466ZM345.966 429.636V482H335.977V429.636H345.966ZM378.591 429.636V482H368.636V429.636H378.591ZM402.216 467.716L425.295 429.636H436.273V482H426.284V443.886L403.307 482H392.227V429.636H402.216V467.716ZM443.483 438.432V429.636H487.665V438.432H470.585V482H460.631V438.432H443.483ZM506.116 447.636H521.321C527.73 447.636 532.662 449.227 536.116 452.409C539.571 455.591 541.298 459.693 541.298 464.716C541.298 467.989 540.526 470.932 538.98 473.545C537.435 476.159 535.173 478.227 532.196 479.75C529.219 481.25 525.594 482 521.321 482H498.446V429.636H508.435V473.205H521.321C524.253 473.205 526.662 472.443 528.548 470.92C530.435 469.375 531.378 467.409 531.378 465.023C531.378 462.5 530.435 460.443 528.548 458.852C526.662 457.239 524.253 456.432 521.321 456.432H506.116V447.636ZM122.909 564.057C118 564.057 113.716 562.932 110.057 560.682C106.398 558.432 103.557 555.284 101.534 551.239C99.5114 547.193 98.5 542.466 98.5 537.057C98.5 531.625 99.5114 526.875 101.534 522.807C103.557 518.739 106.398 515.58 110.057 513.33C113.716 511.08 118 509.955 122.909 509.955C127.818 509.955 132.102 511.08 135.761 513.33C139.42 515.58 142.261 518.739 144.284 522.807C146.307 526.875 147.318 531.625 147.318 537.057C147.318 542.466 146.307 547.193 144.284 551.239C142.261 555.284 139.42 558.432 135.761 560.682C132.102 562.932 127.818 564.057 122.909 564.057ZM122.943 555.5C126.125 555.5 128.761 554.659 130.852 552.977C132.943 551.295 134.489 549.057 135.489 546.261C136.511 543.466 137.023 540.386 137.023 537.023C137.023 533.682 136.511 530.614 135.489 527.818C134.489 525 132.943 522.739 130.852 521.034C128.761 519.33 126.125 518.477 122.943 518.477C119.739 518.477 117.08 519.33 114.966 521.034C112.875 522.739 111.318 525 110.295 527.818C109.295 530.614 108.795 533.682 108.795 537.023C108.795 540.386 109.295 543.466 110.295 546.261C111.318 549.057 112.875 551.295 114.966 552.977C117.08 554.659 119.739 555.5 122.943 555.5ZM199.094 491.136L203.321 497.58C201.753 499.011 199.969 500.034 197.969 500.648C195.991 501.239 193.707 501.614 191.116 501.773C188.526 501.909 185.56 502.034 182.219 502.148C178.446 502.261 175.344 503.08 172.912 504.602C170.48 506.102 168.605 508.33 167.287 511.284C165.991 514.216 165.151 517.898 164.764 522.33H165.412C167.116 519.08 169.48 516.648 172.503 515.034C175.548 513.42 178.969 512.614 182.764 512.614C186.991 512.614 190.753 513.58 194.048 515.511C197.344 517.443 199.935 520.273 201.821 524C203.73 527.705 204.685 532.239 204.685 537.602C204.685 543.034 203.685 547.727 201.685 551.682C199.707 555.636 196.912 558.693 193.298 560.852C189.707 562.989 185.469 564.057 180.582 564.057C175.696 564.057 171.435 562.955 167.798 560.75C164.185 558.523 161.378 555.227 159.378 550.864C157.401 546.5 156.412 541.114 156.412 534.705V529.523C156.412 517.545 158.548 508.534 162.821 502.489C167.094 496.443 173.48 493.341 181.98 493.182C184.73 493.114 187.185 493.102 189.344 493.148C191.503 493.17 193.389 493.068 195.003 492.841C196.639 492.591 198.003 492.023 199.094 491.136ZM180.616 555.5C183.457 555.5 185.901 554.784 187.946 553.352C190.014 551.898 191.605 549.841 192.719 547.182C193.832 544.523 194.389 541.386 194.389 537.773C194.389 534.227 193.832 531.216 192.719 528.739C191.605 526.261 190.014 524.375 187.946 523.08C185.878 521.761 183.401 521.102 180.514 521.102C178.378 521.102 176.469 521.477 174.787 522.227C173.105 522.955 171.662 524.034 170.457 525.466C169.276 526.898 168.355 528.648 167.696 530.716C167.06 532.761 166.719 535.114 166.673 537.773C166.673 543.182 167.912 547.489 170.389 550.693C172.889 553.898 176.298 555.5 180.616 555.5ZM291.105 554.205L290.151 578H280.162V563H273.651V554.205H291.105ZM216.071 510.636H226.06V554.17H244.162V510.636H254.151V554.17H272.253V510.636H282.241V563H216.071V510.636ZM323.858 564.057C318.699 564.057 314.256 562.955 310.528 560.75C306.824 558.523 303.96 555.398 301.938 551.375C299.938 547.33 298.938 542.591 298.938 537.159C298.938 531.795 299.938 527.068 301.938 522.977C303.96 518.886 306.778 515.693 310.392 513.398C314.028 511.102 318.278 509.955 323.142 509.955C326.097 509.955 328.96 510.443 331.733 511.42C334.506 512.398 336.994 513.932 339.199 516.023C341.403 518.114 343.142 520.83 344.415 524.17C345.688 527.489 346.324 531.523 346.324 536.273V539.886H304.699V532.25H336.335C336.335 529.568 335.79 527.193 334.699 525.125C333.608 523.034 332.074 521.386 330.097 520.182C328.142 518.977 325.847 518.375 323.21 518.375C320.347 518.375 317.847 519.08 315.71 520.489C313.597 521.875 311.96 523.693 310.801 525.943C309.665 528.17 309.097 530.591 309.097 533.205V539.17C309.097 542.67 309.71 545.648 310.938 548.102C312.188 550.557 313.926 552.432 316.153 553.727C318.381 555 320.983 555.636 323.96 555.636C325.892 555.636 327.653 555.364 329.244 554.818C330.835 554.25 332.21 553.409 333.369 552.295C334.528 551.182 335.415 549.807 336.028 548.17L345.676 549.909C344.903 552.75 343.517 555.239 341.517 557.375C339.54 559.489 337.051 561.136 334.051 562.318C331.074 563.477 327.676 564.057 323.858 564.057ZM379.69 564.057C374.622 564.057 370.259 562.909 366.599 560.614C362.963 558.295 360.168 555.102 358.213 551.034C356.259 546.966 355.281 542.307 355.281 537.057C355.281 531.739 356.281 527.045 358.281 522.977C360.281 518.886 363.099 515.693 366.736 513.398C370.372 511.102 374.656 509.955 379.588 509.955C383.565 509.955 387.111 510.693 390.224 512.17C393.338 513.625 395.849 515.67 397.759 518.307C399.69 520.943 400.838 524.023 401.202 527.545H391.281C390.736 525.091 389.486 522.977 387.531 521.205C385.599 519.432 383.009 518.545 379.759 518.545C376.918 518.545 374.429 519.295 372.293 520.795C370.179 522.273 368.531 524.386 367.349 527.136C366.168 529.864 365.577 533.091 365.577 536.818C365.577 540.636 366.156 543.932 367.315 546.705C368.474 549.477 370.111 551.625 372.224 553.148C374.361 554.67 376.872 555.432 379.759 555.432C381.69 555.432 383.44 555.08 385.009 554.375C386.599 553.648 387.929 552.614 388.997 551.273C390.088 549.932 390.849 548.318 391.281 546.432H401.202C400.838 549.818 399.736 552.841 397.895 555.5C396.054 558.159 393.588 560.25 390.497 561.773C387.429 563.295 383.827 564.057 379.69 564.057ZM408.139 519.432V510.636H452.321V519.432H435.241V563H425.287V519.432H408.139ZM463.102 563V510.636H484.818C490.727 510.636 495.409 511.898 498.864 514.42C502.318 516.92 504.045 520.318 504.045 524.614C504.045 527.682 503.068 530.114 501.114 531.909C499.159 533.705 496.568 534.909 493.341 535.523C495.682 535.795 497.83 536.5 499.784 537.636C501.739 538.75 503.307 540.25 504.489 542.136C505.693 544.023 506.295 546.273 506.295 548.886C506.295 551.659 505.58 554.114 504.148 556.25C502.716 558.364 500.636 560.023 497.909 561.227C495.205 562.409 491.943 563 488.125 563H463.102ZM472.682 554.477H488.125C490.648 554.477 492.625 553.875 494.057 552.67C495.489 551.466 496.205 549.83 496.205 547.761C496.205 545.33 495.489 543.42 494.057 542.034C492.625 540.625 490.648 539.92 488.125 539.92H472.682V554.477ZM472.682 532.455H484.92C486.83 532.455 488.466 532.182 489.83 531.636C491.216 531.091 492.273 530.318 493 529.318C493.75 528.295 494.125 527.091 494.125 525.705C494.125 523.682 493.295 522.102 491.636 520.966C489.977 519.83 487.705 519.261 484.818 519.261H472.682V532.455ZM539.534 564.057C534.625 564.057 530.341 562.932 526.682 560.682C523.023 558.432 520.182 555.284 518.159 551.239C516.136 547.193 515.125 542.466 515.125 537.057C515.125 531.625 516.136 526.875 518.159 522.807C520.182 518.739 523.023 515.58 526.682 513.33C530.341 511.08 534.625 509.955 539.534 509.955C544.443 509.955 548.727 511.08 552.386 513.33C556.045 515.58 558.886 518.739 560.909 522.807C562.932 526.875 563.943 531.625 563.943 537.057C563.943 542.466 562.932 547.193 560.909 551.239C558.886 555.284 556.045 558.432 552.386 560.682C548.727 562.932 544.443 564.057 539.534 564.057ZM539.568 555.5C542.75 555.5 545.386 554.659 547.477 552.977C549.568 551.295 551.114 549.057 552.114 546.261C553.136 543.466 553.648 540.386 553.648 537.023C553.648 533.682 553.136 530.614 552.114 527.818C551.114 525 549.568 522.739 547.477 521.034C545.386 519.33 542.75 518.477 539.568 518.477C536.364 518.477 533.705 519.33 531.591 521.034C529.5 522.739 527.943 525 526.92 527.818C525.92 530.614 525.42 533.682 525.42 537.023C525.42 540.386 525.92 543.466 526.92 546.261C527.943 549.057 529.5 551.295 531.591 552.977C533.705 554.659 536.364 555.5 539.568 555.5ZM582.037 563.648C580.173 563.648 578.571 562.989 577.23 561.67C575.889 560.33 575.219 558.716 575.219 556.83C575.219 554.966 575.889 553.375 577.23 552.057C578.571 550.716 580.173 550.045 582.037 550.045C583.901 550.045 585.503 550.716 586.844 552.057C588.185 553.375 588.855 554.966 588.855 556.83C588.855 558.08 588.537 559.227 587.901 560.273C587.287 561.295 586.469 562.114 585.446 562.727C584.423 563.341 583.287 563.648 582.037 563.648ZM582.037 525.534C580.173 525.534 578.571 524.864 577.23 523.523C575.889 522.182 575.219 520.58 575.219 518.716C575.219 516.852 575.889 515.261 577.23 513.943C578.571 512.602 580.173 511.932 582.037 511.932C583.901 511.932 585.503 512.602 586.844 513.943C588.185 515.261 588.855 516.852 588.855 518.716C588.855 519.966 588.537 521.114 587.901 522.159C587.287 523.182 586.469 524 585.446 524.614C584.423 525.227 583.287 525.534 582.037 525.534Z" fill="white"/>
</g>
<defs>
<clipPath id="clip0_231_351">
<rect width="1440" height="720" fill="white"/>
</clipPath>
</defs>
</svg>
